simulation
nRows=42
nColumns=15
endheader
time  TH_x TH_y TH_z SC_y  SC_z  SC_x  AC_y  AC_z  AC_x  GH_y  GH_z  GH_yy  EL_x  PS_y
0.250000  0.000000  0.000000  0.000000  -34.152286  -3.714588  3.334532  70.494565  31.920397  -5.235792  43.843357  54.693346  -49.294559  30.595954  124.353368
0.250112  0.000000  0.000000  0.000000  -34.152286  -3.714588  7.084532  71.209263  28.377662  -6.658043  43.843357  54.693346  -49.294559  30.595954  124.353368
0.250224  0.000000  0.000000  0.000000  -34.152286  -3.714588  10.834532  71.805094  24.821124  -7.988077  43.843357  54.693346  -49.294559  30.595954  124.353368
0.250336  0.000000  0.000000  0.000000  -34.152286  -3.714588  14.584532  72.296701  21.253480  -9.243672  43.843357  54.693346  -49.294559  30.595954  124.353368
0.250448  0.000000  0.000000  0.000000  -34.152286  -3.714588  18.334532  72.695481  17.676981  -10.439745  43.843357  54.693346  -49.294559  30.595954  124.353368
0.250560  0.000000  0.000000  0.000000  -34.152286  -3.714588  22.084532  73.010225  14.093541  -11.589057  43.843357  54.693346  -49.294559  30.595954  124.353368
0.250672  0.000000  0.000000  0.000000  -34.152286  -3.714588  25.834532  73.247593  10.504824  -12.702775  43.843357  54.693346  -49.294559  30.595954  124.353368
0.250784  0.000000  0.000000  0.000000  -34.152286  -3.714588  29.584532  73.412419  6.912318  -13.790853  43.843357  54.693346  -49.294559  30.595954  124.353368
0.250896  0.000000  0.000000  0.000000  -34.152286  -3.714588  33.334532  73.508008  3.317378  -14.862501  43.843357  54.693346  -49.294559  30.595954  124.353368
0.251009  0.000000  0.000000  0.000000  -34.152286  -3.714588  37.084532  73.536234  -0.278706  -15.926371  43.843357  54.693346  -49.294559  30.595954  124.353368
0.251121  0.000000  0.000000  0.000000  -34.152286  -3.714588  40.834532  73.497635  -3.874701  -16.990888  43.843357  54.693346  -49.294559  30.595954  124.353368
0.251233  0.000000  0.000000  0.000000  -34.152286  -3.714588  44.584532  73.391470  -7.469348  -18.064508  43.843357  54.693346  -49.294559  30.595954  124.353368
0.251345  0.000000  0.000000  0.000000  -34.152286  -3.714588  48.334532  73.215649  -11.061360  -19.155948  43.843357  54.693346  -49.294559  30.595954  124.353368
0.251457  0.000000  0.000000  0.000000  -34.152286  -3.714588  52.084532  72.966653  -14.649358  -20.274494  43.843357  54.693346  -49.294559  30.595954  124.353368
0.251569  0.000000  0.000000  0.000000  -34.152286  -3.714588  55.834532  72.639368  -18.231836  -21.430288  43.843357  54.693346  -49.294559  30.595954  124.353368
0.251681  0.000000  0.000000  0.000000  -34.152286  -3.714588  59.584532  72.226836  -21.807095  -22.634703  43.843357  54.693346  -49.294559  30.595954  124.353368
0.251793  0.000000  0.000000  0.000000  -34.152286  -3.714588  63.334532  71.719885  -25.373162  -23.900807  43.843357  54.693346  -49.294559  30.595954  124.353368
0.251905  0.000000  0.000000  0.000000  -34.152286  -3.714588  67.084532  71.106690  -28.927763  -25.243877  43.843357  54.693346  -49.294559  30.595954  124.353368
0.252017  0.000000  0.000000  0.000000  -34.152286  -3.714588  70.834532  70.372007  -32.468077  -26.682243  43.843357  54.693346  -49.294559  30.595954  124.353368
0.252129  0.000000  0.000000  0.000000  -43.201586  3.886249  -19.165468  56.299499  43.944595  20.119464  45.739222  65.131718  -25.664750  18.666546  127.820374
0.252241  0.000000  0.000000  0.000000  -43.201586  3.886249  -15.415468  58.151785  40.790818  17.372129  45.739222  65.131718  -25.664750  18.666546  127.820374
0.252353  0.000000  0.000000  0.000000  -43.201586  3.886249  -11.665468  59.729437  37.577835  14.876340  45.739222  65.131718  -25.664750  18.666546  127.820374
0.252465  0.000000  0.000000  0.000000  -43.201586  3.886249  -7.915468  61.073054  34.316683  12.588667  45.739222  65.131718  -25.664750  18.666546  127.820374
0.252577  0.000000  0.000000  0.000000  -43.201586  3.886249  -4.165468  62.215417  31.016195  10.473236  45.739222  65.131718  -25.664750  18.666546  127.820374
0.252689  0.000000  0.000000  0.000000  -43.201586  3.886249  -0.415468  63.182955  27.683541  8.500219  45.739222  65.131718  -25.664750  18.666546  127.820374
0.252801  0.000000  0.000000  0.000000  -43.201586  3.886249  3.334532  63.996921  24.324589  6.644622  45.739222  65.131718  -25.664750  18.666546  127.820374
0.252913  0.000000  0.000000  0.000000  -43.201586  3.886249  7.084532  64.674363  20.944252  4.885221  45.739222  65.131718  -25.664750  18.666546  127.820374
0.253026  0.000000  0.000000  0.000000  -43.201586  3.886249  10.834532  65.228872  17.546681  3.203791  45.739222  65.131718  -25.664750  18.666546  127.820374
0.253138  0.000000  0.000000  0.000000  -43.201586  3.886249  14.584532  65.671129  14.135449  1.584441  45.739222  65.131718  -25.664750  18.666546  127.820374
0.253250  0.000000  0.000000  0.000000  -43.201586  3.886249  18.334532  66.009393  10.713700  0.013053  45.739222  65.131718  -25.664750  18.666546  127.820374
0.253362  0.000000  0.000000  0.000000  -43.201586  3.886249  22.084532  66.249798  7.284255  -1.523135  45.739222  65.131718  -25.664750  18.666546  127.820374
0.253474  0.000000  0.000000  0.000000  -43.201586  3.886249  25.834532  66.396630  3.849709  -3.035957  45.739222  65.131718  -25.664750  18.666546  127.820374
0.253586  0.000000  0.000000  0.000000  -43.201586  3.886249  29.584532  66.452462  0.412509  -4.536608  45.739222  65.131718  -25.664750  18.666546  127.820374
0.253698  0.000000  0.000000  0.000000  -43.201586  3.886249  33.334532  66.418266  -3.024978  -6.035961  45.739222  65.131718  -25.664750  18.666546  127.820374
0.253810  0.000000  0.000000  0.000000  -43.201586  3.886249  37.084532  66.293446  -6.460375  -7.544858  45.739222  65.131718  -25.664750  18.666546  127.820374
0.253922  0.000000  0.000000  0.000000  -43.201586  3.886249  40.834532  66.075818  -9.891272  -9.074392  45.739222  65.131718  -25.664750  18.666546  127.820374
0.254034  0.000000  0.000000  0.000000  -43.201586  3.886249  44.584532  65.761528  -13.315115  -10.636208  45.739222  65.131718  -25.664750  18.666546  127.820374
0.254146  0.000000  0.000000  0.000000  -43.201586  3.886249  48.334532  65.344897  -16.729144  -12.242815  45.739222  65.131718  -25.664750  18.666546  127.820374
0.254258  0.000000  0.000000  0.000000  -43.201586  3.886249  52.084532  64.818207  -20.130302  -13.907970  45.739222  65.131718  -25.664750  18.666546  127.820374
0.254370  0.000000  0.000000  0.000000  -43.201586  3.886249  55.834532  64.171386  -23.515127  -15.647096  45.739222  65.131718  -25.664750  18.666546  127.820374
0.254482  0.000000  0.000000  0.000000  -43.201586  3.886249  59.584532  63.391595  -26.879624  -17.477804  45.739222  65.131718  -25.664750  18.666546  127.820374
0.254594  0.000000  0.000000  0.000000  -43.201586  3.886249  63.334532  62.462681  -30.219087  -19.420518  45.739222  65.131718  -25.664750  18.666546  127.820374
